<svg xmlns="http://www.w3.org/2000/svg" x="0px" y="0px"
width="24" height="24"
viewBox="0 0 172 172"
style=" fill:#000000;"><g fill="none" fill-rule="nonzero" stroke="none" stroke-width="1" stroke-linecap="butt" stroke-linejoin="miter" stroke-miterlimit="10" stroke-dasharray="" stroke-dashoffset="0" font-family="none" font-weight="none" font-size="none" text-anchor="none" style="mix-blend-mode: normal"><path d="M0,172v-172h172v172z" fill="none"></path><g fill="#0a5f98"><path d="M86,28.66667c-13.85314,0 -25.08333,11.23019 -25.08333,25.08333c0,13.85314 11.23019,25.08333 25.08333,25.08333c13.85314,0 25.08333,-11.23019 25.08333,-25.08333c0,-13.85314 -11.23019,-25.08333 -25.08333,-25.08333zM32.25,50.16667c-9.8951,0 -17.91667,8.02156 -17.91667,17.91667c0,9.8951 8.02156,17.91667 17.91667,17.91667c9.8951,0 17.91667,-8.02156 17.91667,-17.91667c0,-9.8951 -8.02156,-17.91667 -17.91667,-17.91667zM139.75,50.16667c-9.8951,0 -17.91667,8.02156 -17.91667,17.91667c0,9.8951 8.02156,17.91667 17.91667,17.91667c9.8951,0 17.91667,-8.02156 17.91667,-17.91667c0,-9.8951 -8.02156,-17.91667 -17.91667,-17.91667zM86,93.16667c-16.74133,0 -50.16667,8.4065 -50.16667,25.08333v17.91667c0,3.956 3.21067,7.16667 7.16667,7.16667h86c3.956,0 7.16667,-3.21067 7.16667,-7.16667v-17.91667c0,-16.67683 -33.42533,-25.08333 -50.16667,-25.08333zM27.9388,100.71126c-11.3305,1.74867 -27.9388,9.57713 -27.9388,19.00847v16.44694c0,3.956 3.21067,7.16667 7.16667,7.16667h14.33333v-25.08333c0,-6.88717 2.47564,-12.66541 6.4388,-17.53874zM144.06119,100.71126c3.96317,4.87333 6.43881,10.65157 6.43881,17.53874v25.08333h14.33333c3.956,0 7.16667,-3.21067 7.16667,-7.16667v-16.44694c0,-9.43133 -16.60831,-17.2598 -27.93881,-19.00847z"></path></g></g></svg>