<svg width="55" height="55" viewBox="0 0 55 55" fill="none" xmlns="http://www.w3.org/2000/svg">
<rect width="55" height="55" rx="27.5" fill="url(#paint0_linear)"/>
<path d="M13.7741 12.306C13.5566 12.306 13.3798 12.5365 13.3798 12.8214V19.1906C13.3798 19.4754 13.2023 19.709 12.9825 19.709C12.7633 19.709 12.5864 19.4753 12.5864 19.1906V12.8214C12.5864 12.5365 12.409 12.306 12.1915 12.306H12.1867C11.9686 12.306 11.7918 12.5365 11.7918 12.8214V19.1906C11.7918 19.4754 11.615 19.709 11.3958 19.709C11.1759 19.709 10.9991 19.4753 10.9991 19.1906V12.8214C10.9991 12.5365 10.822 12.306 10.6041 12.306H10.5994C10.3812 12.306 10.2055 12.5365 10.2055 12.8214V19.1906C10.2055 19.4754 10.0277 19.709 9.80884 19.709C9.5886 19.709 9.4122 19.4753 9.4122 19.1906V12.8214C9.4122 12.5365 9.23476 12.306 9.01787 12.306C8.81016 12.306 8.64285 12.5255 8.64285 12.7944C8.64285 14.4059 8.64285 19.4484 8.64285 19.6633C8.64285 21.7631 9.18033 22.9034 9.98151 23.4378C10.629 23.8678 11.0087 24.7755 10.9374 25.7228L9.78297 41.1524C9.74025 41.7486 9.88854 42.3414 10.1953 42.7825C10.5033 43.2286 10.939 43.4802 11.3958 43.4802C11.8535 43.4802 12.2889 43.2287 12.5953 42.7825C12.902 42.3413 13.052 41.7486 13.0079 41.1524L11.8538 25.7228C11.7833 24.7755 12.163 23.8678 12.8097 23.4378C13.6115 22.9033 14.1484 21.7631 14.1484 19.6633C14.1484 19.4484 14.1484 14.4059 14.1484 12.7944C14.1484 12.5255 13.9812 12.306 13.7741 12.306Z" fill="white"/>
<path d="M44.5078 27.0274C44.6568 27.0274 44.7783 26.8692 44.7783 26.6728V12.9271C44.7783 12.5842 44.5655 12.306 44.3036 12.306C44.0756 12.306 43.8767 12.502 43.8147 12.7867L42.1699 20.2975C41.6891 22.4923 41.9843 24.8548 42.9734 26.7365C43.0695 26.9181 43.2276 27.0274 43.3969 27.0274L42.3406 41.1507C42.2962 41.747 42.4458 42.3401 42.7533 42.7826C43.0593 43.227 43.4954 43.4803 43.9524 43.4803C44.4095 43.4803 44.8449 43.227 45.1516 42.7826C45.4587 42.3401 45.608 41.7471 45.5638 41.1507L44.5078 27.0274Z" fill="white"/>
<path d="M27.7045 11.7857C20.9112 11.7857 15.4033 18.9978 15.4033 27.8938C15.4033 36.7881 20.9112 44 27.7045 44C34.4985 44 40.0057 36.788 40.0057 27.8938C40.0057 18.9978 34.4985 11.7857 27.7045 11.7857ZM27.7045 39.3926C22.8633 39.3926 18.924 34.2345 18.924 27.8938C18.924 21.553 22.8633 16.3933 27.7045 16.3933C32.547 16.3933 36.4862 21.553 36.4862 27.8938C36.4862 34.2345 32.547 39.3926 27.7045 39.3926Z" fill="white"/>
<path d="M27.7045 18.0127C23.545 18.0127 20.1605 22.4447 20.1605 27.8938C20.1605 33.3411 23.545 37.7734 27.7045 37.7734C31.8646 37.7734 35.2497 33.3411 35.2497 27.8938C35.2497 22.4447 31.8646 18.0127 27.7045 18.0127Z" fill="white"/>
<defs>
<linearGradient id="paint0_linear" x1="27.5" y1="0" x2="27.5" y2="55" gradientUnits="userSpaceOnUse">
<stop stop-color="#2300A3" stop-opacity="0.62"/>
<stop offset="0.541667" stop-color="#176DCF" stop-opacity="0.517042"/>
<stop offset="0.9997" stop-color="#11A2E5" stop-opacity="0.45"/>
<stop offset="0.9998" stop-color="#0AE2FF" stop-opacity="0.25"/>
</linearGradient>
</defs>
</svg>
